<?xml version="1.0" encoding="UTF-8" standalone="no"?>
<!DOCTYPE svg PUBLIC "-//W3C//DTD SVG 1.1//EN"
 "http://www.w3.org/Graphics/SVG/1.1/DTD/svg11.dtd">
<!-- Generated by graphviz version 13.1.2 (20250808.2320)
 -->
<!-- Title: G Pages: 1 -->
<svg width="225pt" height="352pt"
 viewBox="0.00 0.00 225.00 352.00" xmlns="http://www.w3.org/2000/svg" xmlns:xlink="http://www.w3.org/1999/xlink">
<g id="graph0" class="graph" transform="scale(1 1) rotate(0) translate(4 348.05)">
<title>G</title><style>.edge>path:hover{stroke-width:8}</style>
<polygon fill="white" stroke="none" points="-4,4 -4,-348.05 220.5,-348.05 220.5,4 -4,4"/>
<!-- magneto___main__ -->
<g id="node1" class="node">
<title>magneto___main__</title><style>.edge>path:hover{stroke-width:8}</style>
<ellipse fill="#ac4949" stroke="black" cx="56.95" cy="-20.51" rx="41.01" ry="20.51"/>
<text xml:space="preserve" text-anchor="middle" x="56.95" y="-21.51" font-family="Helvetica,sans-Serif" font-size="10.00" fill="#ffffff">magneto.</text>
<text xml:space="preserve" text-anchor="middle" x="56.95" y="-11.01" font-family="Helvetica,sans-Serif" font-size="10.00" fill="#ffffff">__main__</text>
</g>
<!-- magneto_autopass -->
<g id="node2" class="node">
<title>magneto_autopass</title><style>.edge>path:hover{stroke-width:8}</style>
<ellipse fill="#c24747" stroke="black" cx="48.95" cy="-323.54" rx="39.95" ry="20.51"/>
<text xml:space="preserve" text-anchor="middle" x="48.95" y="-324.54" font-family="Helvetica,sans-Serif" font-size="10.00" fill="#ffffff">magneto.</text>
<text xml:space="preserve" text-anchor="middle" x="48.95" y="-314.04" font-family="Helvetica,sans-Serif" font-size="10.00" fill="#ffffff">autopass</text>
</g>
<!-- magneto_config -->
<g id="node4" class="node">
<title>magneto_config</title><style>.edge>path:hover{stroke-width:8}</style>
<ellipse fill="#d02424" stroke="black" cx="48.95" cy="-246.53" rx="48.23" ry="18"/>
<text xml:space="preserve" text-anchor="middle" x="48.95" y="-242.28" font-family="Helvetica,sans-Serif" font-size="10.00" fill="#ffffff">magneto.config</text>
</g>
<!-- magneto_autopass&#45;&gt;magneto_config -->
<g id="edge1" class="edge">
<title>magneto_autopass&#45;&gt;magneto_config</title><style>.edge>path:hover{stroke-width:8}</style>
<path fill="none" stroke="black" d="M48.95,-302.83C48.95,-294.72 48.95,-285.15 48.95,-276.28"/>
<polygon fill="#c24747" stroke="black" points="52.45,-276.32 48.95,-266.32 45.45,-276.32 52.45,-276.32"/>
</g>
<!-- magneto_cli -->
<g id="node3" class="node">
<title>magneto_cli</title><style>.edge>path:hover{stroke-width:8}</style>
<ellipse fill="#a83838" stroke="black" cx="56.95" cy="-95.01" rx="38.61" ry="18"/>
<text xml:space="preserve" text-anchor="middle" x="56.95" y="-90.76" font-family="Helvetica,sans-Serif" font-size="10.00" fill="#ffffff">magneto.cli</text>
</g>
<!-- magneto_cli&#45;&gt;magneto___main__ -->
<g id="edge2" class="edge">
<title>magneto_cli&#45;&gt;magneto___main__</title><style>.edge>path:hover{stroke-width:8}</style>
<path fill="none" stroke="black" d="M56.95,-76.83C56.95,-69.6 56.95,-60.96 56.95,-52.67"/>
<polygon fill="#a83838" stroke="black" points="60.45,-52.9 56.95,-42.9 53.45,-52.9 60.45,-52.9"/>
</g>
<!-- magneto_config&#45;&gt;magneto_cli -->
<g id="edge3" class="edge">
<title>magneto_config&#45;&gt;magneto_cli</title><style>.edge>path:hover{stroke-width:8}</style>
<path fill="none" stroke="black" d="M31.28,-229.4C21.47,-219.2 10.2,-205.12 4.95,-190.02 -1.05,-172.81 -1.95,-165.89 4.95,-149.01 9.75,-137.26 18.56,-126.7 27.58,-118.16"/>
<polygon fill="#d02424" stroke="black" points="29.82,-120.85 35.03,-111.62 25.2,-115.59 29.82,-120.85"/>
</g>
<!-- magneto_notifications -->
<g id="node5" class="node">
<title>magneto_notifications</title><style>.edge>path:hover{stroke-width:8}</style>
<ellipse fill="#b03a3a" stroke="black" cx="165.95" cy="-169.52" rx="48.44" ry="20.51"/>
<text xml:space="preserve" text-anchor="middle" x="165.95" y="-170.52" font-family="Helvetica,sans-Serif" font-size="10.00" fill="#ffffff">magneto.</text>
<text xml:space="preserve" text-anchor="middle" x="165.95" y="-160.02" font-family="Helvetica,sans-Serif" font-size="10.00" fill="#ffffff">notifications</text>
</g>
<!-- magneto_config&#45;&gt;magneto_notifications -->
<g id="edge4" class="edge">
<title>magneto_config&#45;&gt;magneto_notifications</title><style>.edge>path:hover{stroke-width:8}</style>
<path fill="none" stroke="black" d="M72.34,-230.53C89.04,-219.83 111.79,-205.24 130.68,-193.13"/>
<polygon fill="#d02424" stroke="black" points="132.35,-196.22 138.88,-187.87 128.57,-190.32 132.35,-196.22"/>
</g>
<!-- magneto_web -->
<g id="node7" class="node">
<title>magneto_web</title><style>.edge>path:hover{stroke-width:8}</style>
<ellipse fill="#b03a3a" stroke="black" cx="56.95" cy="-169.52" rx="42.99" ry="18"/>
<text xml:space="preserve" text-anchor="middle" x="56.95" y="-165.27" font-family="Helvetica,sans-Serif" font-size="10.00" fill="#ffffff">magneto.web</text>
</g>
<!-- magneto_config&#45;&gt;magneto_web -->
<g id="edge5" class="edge">
<title>magneto_config&#45;&gt;magneto_web</title><style>.edge>path:hover{stroke-width:8}</style>
<path fill="none" stroke="black" d="M50.8,-228.13C51.72,-219.52 52.85,-208.89 53.9,-199.12"/>
<polygon fill="#d02424" stroke="black" points="57.36,-199.64 54.94,-189.33 50.4,-198.9 57.36,-199.64"/>
</g>
<!-- magneto_notifications&#45;&gt;magneto_cli -->
<g id="edge6" class="edge">
<title>magneto_notifications&#45;&gt;magneto_cli</title><style>.edge>path:hover{stroke-width:8}</style>
<path fill="none" stroke="black" d="M140.67,-151.7C124.89,-141.21 104.49,-127.64 87.77,-116.52"/>
<polygon fill="#b03a3a" stroke="black" points="89.94,-113.76 79.68,-111.13 86.06,-119.58 89.94,-113.76"/>
</g>
<!-- magneto_transmission -->
<g id="node6" class="node">
<title>magneto_transmission</title><style>.edge>path:hover{stroke-width:8}</style>
<ellipse fill="#ce3b3b" stroke="black" cx="165.95" cy="-246.53" rx="50.56" ry="20.51"/>
<text xml:space="preserve" text-anchor="middle" x="165.95" y="-247.53" font-family="Helvetica,sans-Serif" font-size="10.00" fill="#ffffff">magneto.</text>
<text xml:space="preserve" text-anchor="middle" x="165.95" y="-237.03" font-family="Helvetica,sans-Serif" font-size="10.00" fill="#ffffff">transmission</text>
</g>
<!-- magneto_transmission&#45;&gt;magneto_notifications -->
<g id="edge7" class="edge">
<title>magneto_transmission&#45;&gt;magneto_notifications</title><style>.edge>path:hover{stroke-width:8}</style>
<path fill="none" stroke="black" d="M165.95,-225.82C165.95,-218.47 165.95,-209.94 165.95,-201.8"/>
<polygon fill="#ce3b3b" stroke="black" points="169.45,-201.87 165.95,-191.87 162.45,-201.87 169.45,-201.87"/>
</g>
<!-- magneto_transmission&#45;&gt;magneto_web -->
<g id="edge8" class="edge">
<title>magneto_transmission&#45;&gt;magneto_web</title><style>.edge>path:hover{stroke-width:8}</style>
<path fill="none" stroke="black" d="M140.94,-228.32C125.18,-217.47 104.71,-203.39 87.92,-191.83"/>
<polygon fill="#ce3b3b" stroke="black" points="89.99,-189.01 79.77,-186.23 86.02,-194.78 89.99,-189.01"/>
</g>
<!-- magneto_web&#45;&gt;magneto_cli -->
<g id="edge9" class="edge">
<title>magneto_web&#45;&gt;magneto_cli</title><style>.edge>path:hover{stroke-width:8}</style>
<path fill="none" stroke="black" d="M56.95,-151.34C56.95,-143.3 56.95,-133.51 56.95,-124.42"/>
<polygon fill="#b03a3a" stroke="black" points="60.45,-124.59 56.95,-114.59 53.45,-124.59 60.45,-124.59"/>
</g>
</g>
</svg>
