<?plantuml 1.2026.2?><svg xmlns="http://www.w3.org/2000/svg" xmlns:xlink="http://www.w3.org/1999/xlink" contentStyleType="text/css" data-diagram-type="CLASS" height="945px" preserveAspectRatio="none" style="width:1562px;height:945px;background:#FFFFFF;" version="1.1" viewBox="0 0 1562 945" width="1562px" zoomAndPan="magnify"><defs/><g><!--class src.magneto.config.AppConfig--><g class="entity" data-qualified-name="src.magneto.config.AppConfig" data-source-line="2" id="ent0002"><rect fill="#F1F1F1" height="410.2904" rx="2.5" ry="2.5" style="stroke:#181818;stroke-width:0.5;" width="332.3328" x="7" y="7"/><ellipse cx="134.3295" cy="23" fill="#ADD1B2" rx="11" ry="11" style="stroke:#181818;stroke-width:1;"/><path d="M134.4389,18.2813 Q133.517,18.2813 132.7827,18.5938 Q132.0639,18.9063 131.5639,19.5 Q131.0639,20.0781 130.7827,20.9531 Q130.517,21.8281 130.517,22.9219 Q130.517,24.3594 130.9545,25.4063 Q131.4077,26.4531 132.2514,27 Q133.1108,27.5469 134.4233,27.5469 Q135.2045,27.5469 135.892,27.4219 Q136.5952,27.2813 137.5952,26.9688 L137.5952,28.8438 Q136.7358,29.1719 135.9702,29.2969 Q135.2202,29.4219 134.2045,29.4219 Q132.2827,29.4219 130.9702,28.625 Q129.6733,27.8125 129.017,26.3438 Q128.3608,24.8594 128.3608,22.8906 Q128.3608,21.4688 128.7514,20.2969 Q129.1577,19.1094 129.9389,18.2344 Q130.7202,17.3594 131.8608,16.8906 Q133.0014,16.4063 134.4702,16.4063 Q135.4233,16.4063 136.3139,16.6094 Q137.2202,16.7969 138.1577,17.2656 L137.3295,19.0469 Q136.5483,18.6719 135.892,18.4844 Q135.2358,18.2813 134.4389,18.2813 Z " fill="#000000"/><text fill="#000000" font-family="sans-serif" font-size="14" lengthAdjust="spacing" textLength="69.1737" x="154.8295" y="28.432">AppConfig</text><line style="stroke:#181818;stroke-width:0.5;" x1="8" x2="338.3328" y1="39" y2="39"/><text fill="#000000" font-family="sans-serif" font-size="14" lengthAdjust="spacing" textLength="192.9753" x="13" y="57.9659">allowed_origins : tuple[str, ...]</text><text fill="#000000" font-family="sans-serif" font-size="14" lengthAdjust="spacing" textLength="118.0756" x="13" y="77.0339">download_dir : str</text><text fill="#000000" font-family="sans-serif" font-size="14" lengthAdjust="spacing" textLength="142.7295" x="13" y="96.1018">download_path : Path</text><text fill="#000000" font-family="sans-serif" font-size="14" lengthAdjust="spacing" textLength="203.2512" x="13" y="115.1697">max_torrent_upload_bytes : int</text><text fill="#000000" font-family="sans-serif" font-size="14" lengthAdjust="spacing" textLength="200.4512" x="13" y="134.2376">notify_config_path : str | None</text><text fill="#000000" font-family="sans-serif" font-size="14" lengthAdjust="spacing" textLength="137.2835" x="13" y="153.3055">notify_enabled : bool</text><text fill="#000000" font-family="sans-serif" font-size="14" lengthAdjust="spacing" textLength="320.3328" x="13" y="172.3734">notify_routes : tuple[tuple[str, str, str | None], ...]</text><text fill="#000000" font-family="sans-serif" font-size="14" lengthAdjust="spacing" textLength="118.2575" x="13" y="191.4414">notify_service : str</text><text fill="#000000" font-family="sans-serif" font-size="14" lengthAdjust="spacing" textLength="233.7011" x="13" y="210.5093">notify_shock_relay_root : str | None</text><text fill="#000000" font-family="sans-serif" font-size="14" lengthAdjust="spacing" textLength="181.9013" x="13" y="229.5772">notify_state_file : str | None</text><text fill="#000000" font-family="sans-serif" font-size="14" lengthAdjust="spacing" textLength="144.7034" x="13" y="248.6451">notify_tag : str | None</text><text fill="#000000" font-family="sans-serif" font-size="14" lengthAdjust="spacing" textLength="163.4354" x="13" y="267.713">notify_target : str | None</text><text fill="#000000" font-family="sans-serif" font-size="14" lengthAdjust="spacing" textLength="142.9675" x="13" y="286.7809">password : str | None</text><text fill="#000000" font-family="sans-serif" font-size="14" lengthAdjust="spacing" textLength="163.9954" x="13" y="305.8489">public_origin : str | None</text><text fill="#000000" font-family="sans-serif" font-size="14" lengthAdjust="spacing" textLength="149.4774" x="13" y="324.9168">request_timeout : float</text><text fill="#000000" font-family="sans-serif" font-size="14" lengthAdjust="spacing" textLength="97.3556" x="13" y="343.9847">secret_key : str</text><text fill="#000000" font-family="sans-serif" font-size="14" lengthAdjust="spacing" textLength="137.7315" x="13" y="363.0526">transmission_url : str</text><text fill="#000000" font-family="sans-serif" font-size="14" lengthAdjust="spacing" textLength="145.7534" x="13" y="382.1205">username : str | None</text><line style="stroke:#181818;stroke-width:0.5;" x1="8" x2="338.3328" y1="390.2225" y2="390.2225"/><text fill="#000000" font-family="sans-serif" font-size="14" lengthAdjust="spacing" textLength="159.4034" x="13" y="409.1884">from_env() -&gt; AppConfig</text></g><!--class src.magneto.autopass.AutoPassCredentialError--><g class="entity" data-qualified-name="src.magneto.autopass.AutoPassCredentialError" data-source-line="23" id="ent0003"><rect fill="#F1F1F1" height="48" rx="2.5" ry="2.5" style="stroke:#181818;stroke-width:0.5;" width="194.2734" x="374.03" y="188.14"/><ellipse cx="389.03" cy="204.14" fill="#ADD1B2" rx="11" ry="11" style="stroke:#181818;stroke-width:1;"/><path d="M389.1394,199.4213 Q388.2175,199.4213 387.4831,199.7338 Q386.7644,200.0463 386.2644,200.64 Q385.7644,201.2181 385.4831,202.0931 Q385.2175,202.9681 385.2175,204.0619 Q385.2175,205.4994 385.655,206.5463 Q386.1081,207.5931 386.9519,208.14 Q387.8113,208.6869 389.1238,208.6869 Q389.905,208.6869 390.5925,208.5619 Q391.2956,208.4213 392.2956,208.1088 L392.2956,209.9838 Q391.4363,210.3119 390.6706,210.4369 Q389.9206,210.5619 388.905,210.5619 Q386.9831,210.5619 385.6706,209.765 Q384.3738,208.9525 383.7175,207.4838 Q383.0613,205.9994 383.0613,204.0306 Q383.0613,202.6088 383.4519,201.4369 Q383.8581,200.2494 384.6394,199.3744 Q385.4206,198.4994 386.5613,198.0306 Q387.7019,197.5463 389.1706,197.5463 Q390.1238,197.5463 391.0144,197.7494 Q391.9206,197.9369 392.8581,198.4056 L392.03,200.1869 Q391.2488,199.8119 390.5925,199.6244 Q389.9363,199.4213 389.1394,199.4213 Z " fill="#000000"/><text fill="#FF0000" font-family="sans-serif" font-size="14" lengthAdjust="spacing" textLength="162.2734" x="403.03" y="209.572">AutoPassCredentialError</text><line style="stroke:#181818;stroke-width:0.5;" x1="375.03" x2="567.3034" y1="220.14" y2="220.14"/><line style="stroke:#181818;stroke-width:0.5;" x1="375.03" x2="567.3034" y1="228.14" y2="228.14"/></g><!--class src.magneto.config.ConfigurationError--><g class="entity" data-qualified-name="src.magneto.config.ConfigurationError" data-source-line="25" id="ent0004"><rect fill="#F1F1F1" height="48" rx="2.5" ry="2.5" style="stroke:#181818;stroke-width:0.5;" width="156.6835" x="602.82" y="188.14"/><ellipse cx="617.82" cy="204.14" fill="#ADD1B2" rx="11" ry="11" style="stroke:#181818;stroke-width:1;"/><path d="M617.9294,199.4213 Q617.0075,199.4213 616.2731,199.7338 Q615.5544,200.0463 615.0544,200.64 Q614.5544,201.2181 614.2731,202.0931 Q614.0075,202.9681 614.0075,204.0619 Q614.0075,205.4994 614.445,206.5463 Q614.8981,207.5931 615.7419,208.14 Q616.6013,208.6869 617.9138,208.6869 Q618.695,208.6869 619.3825,208.5619 Q620.0856,208.4213 621.0856,208.1088 L621.0856,209.9838 Q620.2263,210.3119 619.4606,210.4369 Q618.7106,210.5619 617.695,210.5619 Q615.7731,210.5619 614.4606,209.765 Q613.1638,208.9525 612.5075,207.4838 Q611.8513,205.9994 611.8513,204.0306 Q611.8513,202.6088 612.2419,201.4369 Q612.6481,200.2494 613.4294,199.3744 Q614.2106,198.4994 615.3513,198.0306 Q616.4919,197.5463 617.9606,197.5463 Q618.9138,197.5463 619.8044,197.7494 Q620.7106,197.9369 621.6481,198.4056 L620.82,200.1869 Q620.0388,199.8119 619.3825,199.6244 Q618.7263,199.4213 617.9294,199.4213 Z " fill="#000000"/><text fill="#FF0000" font-family="sans-serif" font-size="14" lengthAdjust="spacing" textLength="124.6835" x="631.82" y="209.572">ConfigurationError</text><line style="stroke:#181818;stroke-width:0.5;" x1="603.82" x2="758.5035" y1="220.14" y2="220.14"/><line style="stroke:#181818;stroke-width:0.5;" x1="603.82" x2="758.5035" y1="228.14" y2="228.14"/></g><!--class src.magneto.notifications.NotificationConfig--><g class="entity" data-qualified-name="src.magneto.notifications.NotificationConfig" data-source-line="27" id="ent0005"><rect fill="#F1F1F1" height="238.6792" rx="2.5" ry="2.5" style="stroke:#181818;stroke-width:0.5;" width="387.7586" x="636.29" y="699.56"/><ellipse cx="766.1325" cy="715.56" fill="#ADD1B2" rx="11" ry="11" style="stroke:#181818;stroke-width:1;"/><path d="M766.2419,710.8413 Q765.32,710.8413 764.5857,711.1538 Q763.8669,711.4663 763.3669,712.06 Q762.8669,712.6381 762.5857,713.5131 Q762.32,714.3881 762.32,715.4819 Q762.32,716.9194 762.7575,717.9663 Q763.2107,719.0131 764.0544,719.56 Q764.9138,720.1069 766.2263,720.1069 Q767.0075,720.1069 767.695,719.9819 Q768.3982,719.8413 769.3982,719.5288 L769.3982,721.4038 Q768.5388,721.7319 767.7732,721.8569 Q767.0232,721.9819 766.0075,721.9819 Q764.0857,721.9819 762.7732,721.185 Q761.4763,720.3725 760.82,718.9038 Q760.1638,717.4194 760.1638,715.4506 Q760.1638,714.0288 760.5544,712.8569 Q760.9607,711.6694 761.7419,710.7944 Q762.5232,709.9194 763.6638,709.4506 Q764.8044,708.9663 766.2732,708.9663 Q767.2263,708.9663 768.1169,709.1694 Q769.0232,709.3569 769.9607,709.8256 L769.1325,711.6069 Q768.3513,711.2319 767.695,711.0444 Q767.0388,710.8413 766.2419,710.8413 Z " fill="#000000"/><text fill="#000000" font-family="sans-serif" font-size="14" lengthAdjust="spacing" textLength="119.5735" x="786.6325" y="720.992">NotificationConfig</text><line style="stroke:#181818;stroke-width:0.5;" x1="637.29" x2="1023.0486" y1="731.56" y2="731.56"/><text fill="#000000" font-family="sans-serif" font-size="14" lengthAdjust="spacing" textLength="156.4914" x="642.29" y="750.5259">config_path : str | None</text><text fill="#000000" font-family="sans-serif" font-size="14" lengthAdjust="spacing" textLength="93.3236" x="642.29" y="769.5939">enabled : bool</text><text fill="#000000" font-family="sans-serif" font-size="14" lengthAdjust="spacing" textLength="230.6211" x="642.29" y="788.6618">routes : tuple[NotificationRoute, ...]</text><text fill="#000000" font-family="sans-serif" font-size="14" lengthAdjust="spacing" textLength="74.2977" x="642.29" y="807.7297">service : str</text><text fill="#000000" font-family="sans-serif" font-size="14" lengthAdjust="spacing" textLength="151.5774" x="642.29" y="826.7976">shock_relay_root : Path</text><text fill="#000000" font-family="sans-serif" font-size="14" lengthAdjust="spacing" textLength="99.7776" x="642.29" y="845.8655">state_file : Path</text><text fill="#000000" font-family="sans-serif" font-size="14" lengthAdjust="spacing" textLength="100.7436" x="642.29" y="864.9334">tag : str | None</text><text fill="#000000" font-family="sans-serif" font-size="14" lengthAdjust="spacing" textLength="119.4756" x="642.29" y="884.0014">target : str | None</text><line style="stroke:#181818;stroke-width:0.5;" x1="637.29" x2="1023.0486" y1="892.1033" y2="892.1033"/><text fill="#000000" font-family="sans-serif" font-size="14" lengthAdjust="spacing" textLength="375.7586" x="642.29" y="911.0693">from_app_config(config: AppConfig) -&gt; NotificationConfig</text><text fill="#000000" font-family="sans-serif" font-size="14" lengthAdjust="spacing" textLength="310.0848" x="642.29" y="930.1372">resolved_routes() -&gt; tuple[NotificationRoute, ...]</text></g><!--class src.magneto.notifications.NotificationError--><g class="entity" data-qualified-name="src.magneto.notifications.NotificationError" data-source-line="39" id="ent0006"><rect fill="#F1F1F1" height="48" rx="2.5" ry="2.5" style="stroke:#181818;stroke-width:0.5;" width="142.1656" x="102.08" y="534.43"/><ellipse cx="117.08" cy="550.43" fill="#ADD1B2" rx="11" ry="11" style="stroke:#181818;stroke-width:1;"/><path d="M117.1894,545.7113 Q116.2675,545.7113 115.5331,546.0238 Q114.8144,546.3363 114.3144,546.93 Q113.8144,547.5081 113.5331,548.3831 Q113.2675,549.2581 113.2675,550.3519 Q113.2675,551.7894 113.705,552.8363 Q114.1581,553.8831 115.0019,554.43 Q115.8613,554.9769 117.1738,554.9769 Q117.955,554.9769 118.6425,554.8519 Q119.3456,554.7113 120.3456,554.3988 L120.3456,556.2738 Q119.4863,556.6019 118.7206,556.7269 Q117.9706,556.8519 116.955,556.8519 Q115.0331,556.8519 113.7206,556.055 Q112.4238,555.2425 111.7675,553.7738 Q111.1113,552.2894 111.1113,550.3206 Q111.1113,548.8988 111.5019,547.7269 Q111.9081,546.5394 112.6894,545.6644 Q113.4706,544.7894 114.6113,544.3206 Q115.7519,543.8363 117.2206,543.8363 Q118.1738,543.8363 119.0644,544.0394 Q119.9706,544.2269 120.9081,544.6956 L120.08,546.4769 Q119.2988,546.1019 118.6425,545.9144 Q117.9863,545.7113 117.1894,545.7113 Z " fill="#000000"/><text fill="#FF0000" font-family="sans-serif" font-size="14" lengthAdjust="spacing" textLength="110.1656" x="131.08" y="555.862">NotificationError</text><line style="stroke:#181818;stroke-width:0.5;" x1="103.08" x2="243.2456" y1="566.43" y2="566.43"/><line style="stroke:#181818;stroke-width:0.5;" x1="103.08" x2="243.2456" y1="574.43" y2="574.43"/></g><!--class src.magneto.notifications.NotificationResult--><g class="entity" data-qualified-name="src.magneto.notifications.NotificationResult" data-source-line="41" id="ent0007"><rect fill="#F1F1F1" height="105.2038" rx="2.5" ry="2.5" style="stroke:#181818;stroke-width:0.5;" width="149.1935" x="279.57" y="505.82"/><ellipse cx="294.57" cy="521.82" fill="#ADD1B2" rx="11" ry="11" style="stroke:#181818;stroke-width:1;"/><path d="M294.6794,517.1012 Q293.7575,517.1012 293.0231,517.4137 Q292.3044,517.7262 291.8044,518.32 Q291.3044,518.8981 291.0231,519.7731 Q290.7575,520.6481 290.7575,521.7419 Q290.7575,523.1794 291.195,524.2262 Q291.6481,525.2731 292.4919,525.82 Q293.3513,526.3669 294.6638,526.3669 Q295.445,526.3669 296.1325,526.2419 Q296.8356,526.1012 297.8356,525.7887 L297.8356,527.6637 Q296.9763,527.9919 296.2106,528.1169 Q295.4606,528.2419 294.445,528.2419 Q292.5231,528.2419 291.2106,527.445 Q289.9138,526.6325 289.2575,525.1637 Q288.6013,523.6794 288.6013,521.7106 Q288.6013,520.2887 288.9919,519.1169 Q289.3981,517.9294 290.1794,517.0544 Q290.9606,516.1794 292.1013,515.7106 Q293.2419,515.2262 294.7106,515.2262 Q295.6638,515.2262 296.5544,515.4294 Q297.4606,515.6169 298.3981,516.0856 L297.57,517.8669 Q296.7888,517.4919 296.1325,517.3044 Q295.4763,517.1012 294.6794,517.1012 Z " fill="#000000"/><text fill="#000000" font-family="sans-serif" font-size="14" lengthAdjust="spacing" textLength="117.1935" x="308.57" y="527.252">NotificationResult</text><line style="stroke:#181818;stroke-width:0.5;" x1="280.57" x2="427.7635" y1="537.82" y2="537.82"/><text fill="#000000" font-family="sans-serif" font-size="14" lengthAdjust="spacing" textLength="95.7036" x="285.57" y="556.7859">disabled : bool</text><text fill="#000000" font-family="sans-serif" font-size="14" lengthAdjust="spacing" textLength="56.6578" x="285.57" y="575.8539">sent : int</text><text fill="#000000" font-family="sans-serif" font-size="14" lengthAdjust="spacing" textLength="79.8697" x="285.57" y="594.9218">skipped : int</text><line style="stroke:#181818;stroke-width:0.5;" x1="280.57" x2="427.7635" y1="603.0238" y2="603.0238"/></g><!--class src.magneto.notifications.NotificationRoute--><g class="entity" data-qualified-name="src.magneto.notifications.NotificationRoute" data-source-line="46" id="ent0008"><rect fill="#F1F1F1" height="105.2038" rx="2.5" ry="2.5" style="stroke:#181818;stroke-width:0.5;" width="168.4914" x="463.92" y="505.82"/><ellipse cx="488.4356" cy="521.82" fill="#ADD1B2" rx="11" ry="11" style="stroke:#181818;stroke-width:1;"/><path d="M488.545,517.1012 Q487.6231,517.1012 486.8888,517.4137 Q486.17,517.7262 485.67,518.32 Q485.17,518.8981 484.8888,519.7731 Q484.6231,520.6481 484.6231,521.7419 Q484.6231,523.1794 485.0606,524.2262 Q485.5138,525.2731 486.3575,525.82 Q487.2169,526.3669 488.5294,526.3669 Q489.3106,526.3669 489.9981,526.2419 Q490.7013,526.1012 491.7013,525.7887 L491.7013,527.6637 Q490.8419,527.9919 490.0763,528.1169 Q489.3263,528.2419 488.3106,528.2419 Q486.3888,528.2419 485.0763,527.445 Q483.7794,526.6325 483.1231,525.1637 Q482.4669,523.6794 482.4669,521.7106 Q482.4669,520.2887 482.8575,519.1169 Q483.2638,517.9294 484.045,517.0544 Q484.8263,516.1794 485.9669,515.7106 Q487.1075,515.2262 488.5763,515.2262 Q489.5294,515.2262 490.42,515.4294 Q491.3263,515.6169 492.2638,516.0856 L491.4356,517.8669 Q490.6544,517.4919 489.9981,517.3044 Q489.3419,517.1012 488.545,517.1012 Z " fill="#000000"/><text fill="#000000" font-family="sans-serif" font-size="14" lengthAdjust="spacing" textLength="115.3456" x="504.5502" y="527.252">NotificationRoute</text><line style="stroke:#181818;stroke-width:0.5;" x1="464.92" x2="631.4114" y1="537.82" y2="537.82"/><text fill="#000000" font-family="sans-serif" font-size="14" lengthAdjust="spacing" textLength="156.4914" x="469.92" y="556.7859">config_path : str | None</text><text fill="#000000" font-family="sans-serif" font-size="14" lengthAdjust="spacing" textLength="74.2977" x="469.92" y="575.8539">service : str</text><text fill="#000000" font-family="sans-serif" font-size="14" lengthAdjust="spacing" textLength="68.8238" x="469.92" y="594.9218">target : str</text><line style="stroke:#181818;stroke-width:0.5;" x1="464.92" x2="631.4114" y1="603.0238" y2="603.0238"/></g><!--class src.magneto.transmission.ResponseLike--><g class="entity" data-qualified-name="src.magneto.transmission.ResponseLike" data-source-line="51" id="ent0009"><rect fill="#F1F1F1" height="143.3396" rx="2.5" ry="2.5" style="stroke:#181818;stroke-width:0.5;" width="179.2294" x="83.55" y="747.23"/><ellipse cx="124.3196" cy="763.23" fill="#ADD1B2" rx="11" ry="11" style="stroke:#181818;stroke-width:1;"/><path d="M124.4289,758.5113 Q123.5071,758.5113 122.7727,758.8238 Q122.0539,759.1363 121.5539,759.73 Q121.0539,760.3081 120.7727,761.1831 Q120.5071,762.0581 120.5071,763.1519 Q120.5071,764.5894 120.9446,765.6363 Q121.3977,766.6831 122.2414,767.23 Q123.1008,767.7769 124.4133,767.7769 Q125.1946,767.7769 125.8821,767.6519 Q126.5852,767.5113 127.5852,767.1988 L127.5852,769.0738 Q126.7258,769.4019 125.9602,769.5269 Q125.2102,769.6519 124.1946,769.6519 Q122.2727,769.6519 120.9602,768.855 Q119.6633,768.0425 119.0071,766.5738 Q118.3508,765.0894 118.3508,763.1206 Q118.3508,761.6988 118.7414,760.5269 Q119.1477,759.3394 119.9289,758.4644 Q120.7102,757.5894 121.8508,757.1206 Q122.9914,756.6363 124.4602,756.6363 Q125.4133,756.6363 126.3039,756.8394 Q127.2102,757.0269 128.1477,757.4956 L127.3196,759.2769 Q126.5383,758.9019 125.8821,758.7144 Q125.2258,758.5113 124.4289,758.5113 Z " fill="#000000"/><text fill="#000000" font-family="sans-serif" font-size="14" lengthAdjust="spacing" textLength="89.9636" x="144.0461" y="768.662">ResponseLike</text><line style="stroke:#181818;stroke-width:0.5;" x1="84.55" x2="261.7794" y1="779.23" y2="779.23"/><text fill="#000000" font-family="sans-serif" font-size="14" lengthAdjust="spacing" textLength="140.1115" x="89.55" y="798.1959">headers : dict[str, str]</text><text fill="#000000" font-family="sans-serif" font-size="14" lengthAdjust="spacing" textLength="106.2876" x="89.55" y="817.2639">status_code : int</text><text fill="#000000" font-family="sans-serif" font-size="14" lengthAdjust="spacing" textLength="53.9838" x="89.55" y="836.3318">text : str</text><line style="stroke:#181818;stroke-width:0.5;" x1="84.55" x2="261.7794" y1="844.4338" y2="844.4338"/><text fill="#000000" font-family="sans-serif" font-size="14" lengthAdjust="spacing" textLength="138.5155" x="89.55" y="863.3997">json() -&gt; dict[str, Any]</text><text fill="#000000" font-family="sans-serif" font-size="14" lengthAdjust="spacing" textLength="167.2294" x="89.55" y="882.4676">raise_for_status() -&gt; None</text></g><!--class src.magneto.notifications.ShockRelayNotifier--><g class="entity" data-qualified-name="src.magneto.notifications.ShockRelayNotifier" data-source-line="58" id="ent0010"><rect fill="#F1F1F1" height="124.2717" rx="2.5" ry="2.5" style="stroke:#181818;stroke-width:0.5;" width="248.0111" x="706.16" y="496.29"/><ellipse cx="763.8678" cy="512.29" fill="#ADD1B2" rx="11" ry="11" style="stroke:#181818;stroke-width:1;"/><path d="M763.9772,507.5712 Q763.0553,507.5712 762.3209,507.8837 Q761.6022,508.1962 761.1022,508.79 Q760.6022,509.3681 760.3209,510.2431 Q760.0553,511.1181 760.0553,512.2119 Q760.0553,513.6494 760.4928,514.6963 Q760.9459,515.7431 761.7897,516.29 Q762.649,516.8369 763.9615,516.8369 Q764.7428,516.8369 765.4303,516.7119 Q766.1334,516.5713 767.1334,516.2588 L767.1334,518.1338 Q766.274,518.4619 765.5084,518.5869 Q764.7584,518.7119 763.7428,518.7119 Q761.8209,518.7119 760.5084,517.915 Q759.2115,517.1025 758.5553,515.6338 Q757.899,514.1494 757.899,512.1806 Q757.899,510.7587 758.2897,509.5869 Q758.6959,508.3994 759.4772,507.5244 Q760.2584,506.6494 761.399,506.1806 Q762.5397,505.6962 764.0084,505.6962 Q764.9615,505.6962 765.8522,505.8994 Q766.7584,506.0869 767.6959,506.5556 L766.8678,508.3369 Q766.0865,507.9619 765.4303,507.7744 Q764.774,507.5712 763.9772,507.5712 Z " fill="#000000"/><text fill="#000000" font-family="sans-serif" font-size="14" lengthAdjust="spacing" textLength="124.0955" x="784.3678" y="517.722">ShockRelayNotifier</text><line style="stroke:#181818;stroke-width:0.5;" x1="707.16" x2="953.1711" y1="528.29" y2="528.29"/><text fill="#000000" font-family="sans-serif" font-size="14" lengthAdjust="spacing" textLength="40.8798" x="712.16" y="547.2559">config</text><line style="stroke:#181818;stroke-width:0.5;" x1="707.16" x2="953.1711" y1="555.3579" y2="555.3579"/><text fill="#000000" font-family="sans-serif" font-size="14" lengthAdjust="spacing" textLength="115.3736" x="712.16" y="574.3239">available() -&gt; bool</text><text fill="#000000" font-family="sans-serif" font-size="14" lengthAdjust="spacing" textLength="226.5611" x="712.16" y="593.3918">send(subject: str, body: str) -&gt; bool</text><text fill="#000000" font-family="sans-serif" font-size="14" lengthAdjust="spacing" textLength="236.0111" x="712.16" y="612.4597">send_all(subject: str, body: str) -&gt; int</text></g><!--class src.magneto.notifications.TorrentClient--><g class="entity" data-qualified-name="src.magneto.notifications.TorrentClient" data-source-line="64" id="ent0011"><rect fill="#F1F1F1" height="67.0679" rx="2.5" ry="2.5" style="stroke:#181818;stroke-width:0.5;" width="170.9834" x="988.67" y="524.89"/><ellipse cx="1027.0204" cy="540.89" fill="#ADD1B2" rx="11" ry="11" style="stroke:#181818;stroke-width:1;"/><path d="M1027.1298,536.1713 Q1026.2079,536.1713 1025.4735,536.4838 Q1024.7548,536.7963 1024.2548,537.39 Q1023.7548,537.9681 1023.4735,538.8431 Q1023.2079,539.7181 1023.2079,540.8119 Q1023.2079,542.2494 1023.6454,543.2963 Q1024.0985,544.3431 1024.9423,544.89 Q1025.8016,545.4369 1027.1141,545.4369 Q1027.8954,545.4369 1028.5829,545.3119 Q1029.286,545.1713 1030.286,544.8588 L1030.286,546.7338 Q1029.4266,547.0619 1028.661,547.1869 Q1027.911,547.3119 1026.8954,547.3119 Q1024.9735,547.3119 1023.661,546.515 Q1022.3641,545.7025 1021.7079,544.2338 Q1021.0516,542.7494 1021.0516,540.7806 Q1021.0516,539.3588 1021.4423,538.1869 Q1021.8485,536.9994 1022.6298,536.1244 Q1023.411,535.2494 1024.5516,534.7806 Q1025.6923,534.2963 1027.161,534.2963 Q1028.1141,534.2963 1029.0048,534.4994 Q1029.911,534.6869 1030.8485,535.1556 L1030.0204,536.9369 Q1029.2391,536.5619 1028.5829,536.3744 Q1027.9266,536.1713 1027.1298,536.1713 Z " fill="#000000"/><text fill="#000000" font-family="sans-serif" font-size="14" lengthAdjust="spacing" textLength="87.0937" x="1046.2094" y="546.322">TorrentClient</text><line style="stroke:#181818;stroke-width:0.5;" x1="989.67" x2="1158.6534" y1="556.89" y2="556.89"/><line style="stroke:#181818;stroke-width:0.5;" x1="989.67" x2="1158.6534" y1="564.89" y2="564.89"/><text fill="#000000" font-family="sans-serif" font-size="14" lengthAdjust="spacing" textLength="158.9834" x="994.67" y="583.8559">list_torrents() -&gt; list[dict]</text></g><!--class src.magneto.notifications.TorrentNotificationMonitor--><g class="entity" data-qualified-name="src.magneto.notifications.TorrentNotificationMonitor" data-source-line="67" id="ent0012"><rect fill="#F1F1F1" height="124.2717" rx="2.5" ry="2.5" style="stroke:#181818;stroke-width:0.5;" width="218.4292" x="859.95" y="150.01"/><ellipse cx="878.4176" cy="166.01" fill="#ADD1B2" rx="11" ry="11" style="stroke:#181818;stroke-width:1;"/><path d="M878.527,161.2913 Q877.6051,161.2913 876.8708,161.6038 Q876.152,161.9163 875.652,162.51 Q875.152,163.0881 874.8708,163.9631 Q874.6051,164.8381 874.6051,165.9319 Q874.6051,167.3694 875.0426,168.4163 Q875.4958,169.4631 876.3395,170.01 Q877.1989,170.5569 878.5114,170.5569 Q879.2926,170.5569 879.9801,170.4319 Q880.6833,170.2913 881.6833,169.9788 L881.6833,171.8538 Q880.8239,172.1819 880.0583,172.3069 Q879.3083,172.4319 878.2926,172.4319 Q876.3708,172.4319 875.0583,171.635 Q873.7614,170.8225 873.1051,169.3538 Q872.4489,167.8694 872.4489,165.9006 Q872.4489,164.4788 872.8395,163.3069 Q873.2458,162.1194 874.027,161.2444 Q874.8083,160.3694 875.9489,159.9006 Q877.0895,159.4163 878.5583,159.4163 Q879.5114,159.4163 880.402,159.6194 Q881.3083,159.8069 882.2458,160.2756 L881.4176,162.0569 Q880.6364,161.6819 879.9801,161.4944 Q879.3239,161.2913 878.527,161.2913 Z " fill="#000000"/><text fill="#000000" font-family="sans-serif" font-size="14" lengthAdjust="spacing" textLength="178.7233" x="893.1882" y="171.442">TorrentNotificationMonitor</text><line style="stroke:#181818;stroke-width:0.5;" x1="860.95" x2="1077.3792" y1="182.01" y2="182.01"/><text fill="#000000" font-family="sans-serif" font-size="14" lengthAdjust="spacing" textLength="35.5459" x="865.95" y="200.9759">client</text><text fill="#000000" font-family="sans-serif" font-size="14" lengthAdjust="spacing" textLength="47.8938" x="865.95" y="220.0439">notifier</text><text fill="#000000" font-family="sans-serif" font-size="14" lengthAdjust="spacing" textLength="99.7776" x="865.95" y="239.1118">state_file : Path</text><line style="stroke:#181818;stroke-width:0.5;" x1="860.95" x2="1077.3792" y1="247.2138" y2="247.2138"/><text fill="#000000" font-family="sans-serif" font-size="14" lengthAdjust="spacing" textLength="206.4292" x="865.95" y="266.1797">run_once() -&gt; NotificationResult</text></g><!--class src.magneto.transmission.TransmissionClient--><g class="entity" data-qualified-name="src.magneto.transmission.TransmissionClient" data-source-line="73" id="ent0013"><rect fill="#F1F1F1" height="391.2225" rx="2.5" ry="2.5" style="stroke:#181818;stroke-width:0.5;" width="442.3304" x="1113" y="16.53"/><ellipse cx="1267.2654" cy="32.53" fill="#ADD1B2" rx="11" ry="11" style="stroke:#181818;stroke-width:1;"/><path d="M1267.3748,27.8112 Q1266.4529,27.8112 1265.7186,28.1237 Q1264.9998,28.4362 1264.4998,29.03 Q1263.9998,29.6081 1263.7186,30.4831 Q1263.4529,31.3581 1263.4529,32.4519 Q1263.4529,33.8894 1263.8904,34.9362 Q1264.3436,35.9831 1265.1873,36.53 Q1266.0467,37.0769 1267.3592,37.0769 Q1268.1404,37.0769 1268.8279,36.9519 Q1269.5311,36.8112 1270.5311,36.4987 L1270.5311,38.3737 Q1269.6717,38.7019 1268.9061,38.8269 Q1268.1561,38.9519 1267.1404,38.9519 Q1265.2186,38.9519 1263.9061,38.155 Q1262.6092,37.3425 1261.9529,35.8737 Q1261.2967,34.3894 1261.2967,32.4206 Q1261.2967,30.9987 1261.6873,29.8269 Q1262.0936,28.6394 1262.8748,27.7644 Q1263.6561,26.8894 1264.7967,26.4206 Q1265.9373,25.9362 1267.4061,25.9362 Q1268.3592,25.9362 1269.2498,26.1394 Q1270.1561,26.3269 1271.0936,26.7956 L1270.2654,28.5769 Q1269.4842,28.2019 1268.8279,28.0144 Q1268.1717,27.8112 1267.3748,27.8112 Z " fill="#000000"/><text fill="#000000" font-family="sans-serif" font-size="14" lengthAdjust="spacing" textLength="125.2995" x="1287.7654" y="37.962">TransmissionClient</text><line style="stroke:#181818;stroke-width:0.5;" x1="1114" x2="1554.3304" y1="48.53" y2="48.53"/><text fill="#000000" font-family="sans-serif" font-size="14" lengthAdjust="spacing" textLength="177.4073" x="1119" y="67.4959">auth : tuple[str, str] | None</text><text fill="#000000" font-family="sans-serif" font-size="14" lengthAdjust="spacing" textLength="142.9675" x="1119" y="86.5639">password : str | None</text><text fill="#000000" font-family="sans-serif" font-size="14" lengthAdjust="spacing" textLength="146.4114" x="1119" y="105.6318">session_id : str | None</text><text fill="#000000" font-family="sans-serif" font-size="14" lengthAdjust="spacing" textLength="92.6656" x="1119" y="124.6997">timeout : float</text><text fill="#000000" font-family="sans-serif" font-size="14" lengthAdjust="spacing" textLength="61.9638" x="1119" y="143.7676">transport</text><text fill="#000000" font-family="sans-serif" font-size="14" lengthAdjust="spacing" textLength="46.6198" x="1119" y="162.8355">url : str</text><text fill="#000000" font-family="sans-serif" font-size="14" lengthAdjust="spacing" textLength="145.7534" x="1119" y="181.9034">username : str | None</text><line style="stroke:#181818;stroke-width:0.5;" x1="1114" x2="1554.3304" y1="190.0054" y2="190.0054"/><text fill="#000000" font-family="sans-serif" font-size="14" lengthAdjust="spacing" textLength="391.4386" x="1119" y="208.9714">add_magnet(magnet: str, download_dir: str) -&gt; dict[str, Any]</text><text fill="#000000" font-family="sans-serif" font-size="14" lengthAdjust="spacing" textLength="430.3304" x="1119" y="228.0393">add_torrent_file(content: bytes, download_dir: str) -&gt; dict[str, Any]</text><text fill="#000000" font-family="sans-serif" font-size="14" lengthAdjust="spacing" textLength="430.1904" x="1119" y="247.1072">call(method: str, arguments: dict[str, Any] | None) -&gt; dict[str, Any]</text><text fill="#000000" font-family="sans-serif" font-size="14" lengthAdjust="spacing" textLength="217.8672" x="1119" y="266.1751">list_torrents() -&gt; list[dict[str, Any]]</text><text fill="#000000" font-family="sans-serif" font-size="14" lengthAdjust="spacing" textLength="193.4092" x="1119" y="285.243">pause(torrent_id: int) -&gt; None</text><text fill="#000000" font-family="sans-serif" font-size="14" lengthAdjust="spacing" textLength="232.9171" x="1119" y="304.3109">reannounce(torrent_id: int) -&gt; None</text><text fill="#000000" font-family="sans-serif" font-size="14" lengthAdjust="spacing" textLength="203.9372" x="1119" y="323.3789">remove(torrent_id: int) -&gt; None</text><text fill="#000000" font-family="sans-serif" font-size="14" lengthAdjust="spacing" textLength="197.8192" x="1119" y="342.4468">restart(torrent_id: int) -&gt; None</text><text fill="#000000" font-family="sans-serif" font-size="14" lengthAdjust="spacing" textLength="203.7132" x="1119" y="361.5147">resume(torrent_id: int) -&gt; None</text><text fill="#000000" font-family="sans-serif" font-size="14" lengthAdjust="spacing" textLength="247.659" x="1119" y="380.5826">set_seed_ratio(torrent_id: int) -&gt; None</text><text fill="#000000" font-family="sans-serif" font-size="14" lengthAdjust="spacing" textLength="260.567" x="1119" y="399.6505">set_upload_limit(torrent_id: int) -&gt; None</text></g><!--class src.magneto.transmission.TransmissionError--><g class="entity" data-qualified-name="src.magneto.transmission.TransmissionError" data-source-line="93" id="ent0014"><rect fill="#F1F1F1" height="48" rx="2.5" ry="2.5" style="stroke:#181818;stroke-width:0.5;" width="153.2256" x="297.55" y="794.9"/><ellipse cx="312.55" cy="810.9" fill="#ADD1B2" rx="11" ry="11" style="stroke:#181818;stroke-width:1;"/><path d="M312.6594,806.1813 Q311.7375,806.1813 311.0031,806.4938 Q310.2844,806.8063 309.7844,807.4 Q309.2844,807.9781 309.0031,808.8531 Q308.7375,809.7281 308.7375,810.8219 Q308.7375,812.2594 309.175,813.3063 Q309.6281,814.3531 310.4719,814.9 Q311.3313,815.4469 312.6438,815.4469 Q313.425,815.4469 314.1125,815.3219 Q314.8156,815.1813 315.8156,814.8688 L315.8156,816.7438 Q314.9563,817.0719 314.1906,817.1969 Q313.4406,817.3219 312.425,817.3219 Q310.5031,817.3219 309.1906,816.525 Q307.8938,815.7125 307.2375,814.2438 Q306.5813,812.7594 306.5813,810.7906 Q306.5813,809.3688 306.9719,808.1969 Q307.3781,807.0094 308.1594,806.1344 Q308.9406,805.2594 310.0813,804.7906 Q311.2219,804.3063 312.6906,804.3063 Q313.6438,804.3063 314.5344,804.5094 Q315.4406,804.6969 316.3781,805.1656 L315.55,806.9469 Q314.7688,806.5719 314.1125,806.3844 Q313.4563,806.1813 312.6594,806.1813 Z " fill="#000000"/><text fill="#FF0000" font-family="sans-serif" font-size="14" lengthAdjust="spacing" textLength="121.2256" x="326.55" y="816.332">TransmissionError</text><line style="stroke:#181818;stroke-width:0.5;" x1="298.55" x2="449.7756" y1="826.9" y2="826.9"/><line style="stroke:#181818;stroke-width:0.5;" x1="298.55" x2="449.7756" y1="834.9" y2="834.9"/></g><!--class src.magneto.transmission.Transport--><g class="entity" data-qualified-name="src.magneto.transmission.Transport" data-source-line="95" id="ent0015"><rect fill="#F1F1F1" height="67.0679" rx="2.5" ry="2.5" style="stroke:#181818;stroke-width:0.5;" width="201.9793" x="1233.18" y="524.89"/><ellipse cx="1297.5727" cy="540.89" fill="#ADD1B2" rx="11" ry="11" style="stroke:#181818;stroke-width:1;"/><path d="M1297.6821,536.1713 Q1296.7602,536.1713 1296.0259,536.4838 Q1295.3071,536.7963 1294.8071,537.39 Q1294.3071,537.9681 1294.0259,538.8431 Q1293.7602,539.7181 1293.7602,540.8119 Q1293.7602,542.2494 1294.1977,543.2963 Q1294.6509,544.3431 1295.4946,544.89 Q1296.354,545.4369 1297.6665,545.4369 Q1298.4477,545.4369 1299.1352,545.3119 Q1299.8384,545.1713 1300.8384,544.8588 L1300.8384,546.7338 Q1299.979,547.0619 1299.2134,547.1869 Q1298.4634,547.3119 1297.4477,547.3119 Q1295.5259,547.3119 1294.2134,546.515 Q1292.9165,545.7025 1292.2602,544.2338 Q1291.604,542.7494 1291.604,540.7806 Q1291.604,539.3588 1291.9946,538.1869 Q1292.4009,536.9994 1293.1821,536.1244 Q1293.9634,535.2494 1295.104,534.7806 Q1296.2446,534.2963 1297.7134,534.2963 Q1298.6665,534.2963 1299.5571,534.4994 Q1300.4634,534.6869 1301.4009,535.1556 L1300.5727,536.9369 Q1299.7915,536.5619 1299.1352,536.3744 Q1298.479,536.1713 1297.6821,536.1713 Z " fill="#000000"/><text fill="#000000" font-family="sans-serif" font-size="14" lengthAdjust="spacing" textLength="64.6938" x="1318.0727" y="546.322">Transport</text><line style="stroke:#181818;stroke-width:0.5;" x1="1234.18" x2="1434.1593" y1="556.89" y2="556.89"/><line style="stroke:#181818;stroke-width:0.5;" x1="1234.18" x2="1434.1593" y1="564.89" y2="564.89"/><text fill="#000000" font-family="sans-serif" font-size="14" lengthAdjust="spacing" textLength="189.9793" x="1239.18" y="583.8559">post(url: str) -&gt; ResponseLike</text></g><!--link src.magneto.notifications.ShockRelayNotifier to src.magneto.notifications.NotificationConfig--><g class="link" data-entity-1="ent0010" data-entity-2="ent0005" data-link-type="dependency" data-source-line="98" id="lnk16"><path codeLine="98" d="M830.17,621.01 C830.17,644.53 830.17,666.21 830.17,693.26" fill="none" id="src.magneto.notifications.ShockRelayNotifier-to-src.magneto.notifications.NotificationConfig" style="stroke:#181818;stroke-width:1;"/><polygon fill="#181818" points="830.17,699.26,834.17,690.26,830.17,694.26,826.17,690.26,830.17,699.26" style="stroke:#181818;stroke-width:1;"/><text fill="#000000" font-family="sans-serif" font-size="13" lengthAdjust="spacing" textLength="37.96" x="831.17" y="665.457">config</text></g><!--link src.magneto.notifications.TorrentNotificationMonitor to src.magneto.notifications.ShockRelayNotifier--><g class="link" data-entity-1="ent0012" data-entity-2="ent0010" data-link-type="dependency" data-source-line="99" id="lnk17"><path codeLine="99" d="M944.32,274.69 C919.09,337.17 882.5055,427.776 857.2855,490.266" fill="none" id="src.magneto.notifications.TorrentNotificationMonitor-to-src.magneto.notifications.ShockRelayNotifier" style="stroke:#181818;stroke-width:1;"/><polygon fill="#181818" points="855.04,495.83,862.1176,488.9811,856.9113,491.1934,854.699,485.987,855.04,495.83" style="stroke:#181818;stroke-width:1;"/><text fill="#000000" font-family="sans-serif" font-size="13" lengthAdjust="spacing" textLength="44.473" x="872.24" y="462.187">notifier</text></g><!--link src.magneto.notifications.TorrentNotificationMonitor to src.magneto.notifications.TorrentClient--><g class="link" data-entity-1="ent0012" data-entity-2="ent0011" data-link-type="dependency" data-source-line="100" id="lnk18"><path codeLine="100" d="M987.94,274.69 C1010.24,347.8 1044.8599,461.3309 1062.3699,518.7509" fill="none" id="src.magneto.notifications.TorrentNotificationMonitor-to-src.magneto.notifications.TorrentClient" style="stroke:#181818;stroke-width:1;"/><polygon fill="#181818" points="1064.12,524.49,1065.3209,514.7146,1062.6616,519.7074,1057.6688,517.0481,1064.12,524.49" style="stroke:#181818;stroke-width:1;"/><text fill="#000000" font-family="sans-serif" font-size="13" lengthAdjust="spacing" textLength="33.007" x="1047.01" y="462.187">client</text></g><!--link src.magneto.transmission.TransmissionClient to src.magneto.transmission.Transport--><g class="link" data-entity-1="ent0013" data-entity-2="ent0015" data-link-type="dependency" data-source-line="101" id="lnk19"><path codeLine="101" d="M1334.17,408.17 C1334.17,453.3 1334.17,490.3 1334.17,518.45" fill="none" id="src.magneto.transmission.TransmissionClient-to-src.magneto.transmission.Transport" style="stroke:#181818;stroke-width:1;"/><polygon fill="#181818" points="1334.17,524.45,1338.17,515.45,1334.17,519.45,1330.17,515.45,1334.17,524.45" style="stroke:#181818;stroke-width:1;"/><text fill="#000000" font-family="sans-serif" font-size="13" lengthAdjust="spacing" textLength="57.5381" x="1335.17" y="462.187">transport</text></g><?plantuml-src jLR9Rjim4BtdAuIUNA1Hxq8G80XwQuCWoIqm15eSsumfKYKf9qRRV-yCgStQR1VenSlmpVuuGmikKYm7Mx0Cdg5WXZbj8gKLN6MIMHjzkYkAUwtMOlCfOZQo9ejpjb7WT9nvSTm0ebzNKSIarE_0Kst4HYWR9P4h2mclrfalKHp7IyHm_QwaPZpbmY00Zxh2WhajIX_n2yKv-qWn90FAfMY80Ak30p8ib4E0qawi3sa8fbP6az7lw87IQ12Ws4e2nzELrhAL6rq6Uo7GJhZrHsLgsIHGQLemUv51aq8jtkfibngGZ8nhDn6FTSn1kXOI9W2ERIPFp0O6TWlirxisV20lLr9aLKVwXmP-bc1TwaGEM0WyNcEHgR0MCWCktS6XIT0Pfcmkh1LQfQMHpK69fI0UzQslZSwnyFl5v-ZwDcgOSlMdPjTDfgKsYG5-UrSw_OZ2U_o3tHPCVZD6cvkl7d8xe1z3FAKSJoWY7SVSX0XA93ecCU-X8lXGeslwWLeYCdyuSL5K1sBZeOA_E3C47Z2tHzcknISwQeZQP-W8DQjxTiJ6IZP2m77c-JQpegXkuI9y9Mt3VVk7YNl-MIttE312Je4eyscDTRMBdM_gT3DcM_i4jfJk0cj1mRUM2zjhe4MUDXFCxaHH-5FwF-wTqh_4EU5FqQfFZcvlsp0mZmBDmtUn6qRG7GXn5-bzRu5nCCHJBZBNpDHbHRVI8byuD7LmyE6QODwiLe4ChUwTEf2kOS8YLRL9WvL5nIvCgedwcOZ-H3mFPG5pedf3XKxvQA_jcP3KnU2jxIDVs7Br1fbBmhvOQNxmF_ku55VZBFQe-ozXvzrBWPydOZ_2-h2be94Un5LzIFHAjLmEd7IPyqChWOhdUHnH35NpaTJx2civCM1CgLAjCbWCvaEuFPr8EqIRgCaH5uVuy3ef_JKutl7BqolKGjXvOd0ot9i-Za8R-dtEZcISfo67HVYgoD5z9RKa6Tm6KgyVI5HT6huE_-2ieNVIsNOoecSERgjv5G2EWp8d0YKzT1Nxk9qvwhN0fIysbcHHnowudmFjNQRTm9JI9H5a5fNh_Ga4ai-u4n3CTGvXyIraWHOL4VGKidggIf6B6RzZcwpBtFbDDadumI9xgIbvXWs2-RjIQEiMIE2MCzq1ZyOl6gRNg7_HcoYfP-y_JQ5vToFn9Usi-WyEZoTqKW_8IyPNty54vv9s_lm5?></g></svg>
