<?plantuml 1.2026.2?><svg xmlns="http://www.w3.org/2000/svg" xmlns:xlink="http://www.w3.org/1999/xlink" contentStyleType="text/css" data-diagram-type="DESCRIPTION" height="1008px" preserveAspectRatio="none" style="width:587px;height:1008px;background:#FFFFFF;" version="1.1" viewBox="0 0 587 1008" width="587px" zoomAndPan="magnify"><title>magneto repository architecture</title><defs/><g><g class="title" data-source-line="2"><text fill="#000000" font-family="sans-serif" font-size="14" font-weight="bold" lengthAdjust="spacing" textLength="226.7887" x="170.4343" y="24.9659">magneto repository architecture</text></g><path d="M14.5,346.7516 L78.1883,346.7516 A3.75,3.75 0 0 1 80.6883,349.2516 L87.6883,371.8195 L364.5431,371.8195 A2.5,2.5 0 0 1 367.0431,374.3195 L367.0431,727.0712 A2.5,2.5 0 0 1 364.5431,729.5712 L14.5,729.5712 A2.5,2.5 0 0 1 12,727.0712 L12,349.2516 A2.5,2.5 0 0 1 14.5,346.7516" fill="none" style="stroke:#000000;stroke-width:1.5;"/><line style="stroke:#000000;stroke-width:1.5;" x1="12" x2="87.6883" y1="371.8195" y2="371.8195"/><text fill="#000000" font-family="sans-serif" font-size="14" font-weight="bold" lengthAdjust="spacing" textLength="62.6883" x="16" y="363.7176">magneto</text><!--entity WEB--><g class="entity" data-qualified-name="magneto.WEB" data-source-line="5" id="ent0003"><rect fill="#F1F1F1" height="68.1358" rx="2.5" ry="2.5" style="stroke:#181818;stroke-width:0.5;" width="201.5874" x="120.2644" y="516.5935"/><rect fill="#F1F1F1" height="10" style="stroke:#181818;stroke-width:0.5;" width="15" x="301.8518" y="521.5935"/><rect fill="#F1F1F1" height="2" style="stroke:#181818;stroke-width:0.5;" width="4" x="299.8518" y="523.5935"/><rect fill="#F1F1F1" height="2" style="stroke:#181818;stroke-width:0.5;" width="4" x="299.8518" y="527.5935"/><text fill="#000000" font-family="sans-serif" font-size="14" lengthAdjust="spacing" textLength="47.0118" x="135.2644" y="551.5594">web.py</text><text fill="#000000" font-family="sans-serif" font-size="14" lengthAdjust="spacing" textLength="161.5874" x="135.2644" y="570.6273">Flask blueprints + routes</text></g><!--entity TC--><g class="entity" data-qualified-name="magneto.TC" data-source-line="6" id="ent0004"><rect fill="#F1F1F1" height="68.1358" rx="2.5" ry="2.5" style="stroke:#181818;stroke-width:0.5;" width="196.4774" x="155.5657" y="646.4353"/><rect fill="#F1F1F1" height="10" style="stroke:#181818;stroke-width:0.5;" width="15" x="332.0431" y="651.4353"/><rect fill="#F1F1F1" height="2" style="stroke:#181818;stroke-width:0.5;" width="4" x="330.0431" y="653.4353"/><rect fill="#F1F1F1" height="2" style="stroke:#181818;stroke-width:0.5;" width="4" x="330.0431" y="657.4353"/><text fill="#000000" font-family="sans-serif" font-size="14" lengthAdjust="spacing" textLength="104.3976" x="170.5657" y="681.4013">transmission.py</text><text fill="#000000" font-family="sans-serif" font-size="14" lengthAdjust="spacing" textLength="156.4774" x="170.5657" y="700.4692">Transmission RPC client</text></g><!--entity CLI--><g class="entity" data-qualified-name="magneto.CLI" data-source-line="7" id="ent0005"><rect fill="#F1F1F1" height="68.1358" rx="2.5" ry="2.5" style="stroke:#181818;stroke-width:0.5;" width="133.4916" x="120.7144" y="386.7516"/><rect fill="#F1F1F1" height="10" style="stroke:#181818;stroke-width:0.5;" width="15" x="234.2061" y="391.7516"/><rect fill="#F1F1F1" height="2" style="stroke:#181818;stroke-width:0.5;" width="4" x="232.2061" y="393.7516"/><rect fill="#F1F1F1" height="2" style="stroke:#181818;stroke-width:0.5;" width="4" x="232.2061" y="397.7516"/><text fill="#000000" font-family="sans-serif" font-size="14" lengthAdjust="spacing" textLength="33.4459" x="135.7144" y="421.7176">cli.py</text><text fill="#000000" font-family="sans-serif" font-size="14" lengthAdjust="spacing" textLength="93.4916" x="135.7144" y="440.7855">CLI entrypoint</text></g><!--entity BROWSER--><g class="entity" data-qualified-name="BROWSER" data-source-line="10" id="ent0006"><ellipse cx="181.1597" cy="60.5679" fill="#F1F1F1" rx="8" ry="8" style="stroke:#181818;stroke-width:0.5;"/><path d="M181.1597,68.5679 L181.1597,95.5679 M168.1597,76.5679 L194.1597,76.5679 M181.1597,95.5679 L168.1597,110.5679 M181.1597,95.5679 L194.1597,110.5679" fill="none" style="stroke:#181818;stroke-width:0.5;"/><text fill="#000000" font-family="sans-serif" font-size="14" lengthAdjust="spacing" textLength="54.7398" x="123.1649" y="127.0339">Browser</text><text fill="#000000" font-family="sans-serif" font-size="14" lengthAdjust="spacing" textLength="115.9895" x="123.1649" y="146.1018">(phone / desktop)</text></g><!--entity CADDY--><g class="entity" data-qualified-name="CADDY" data-source-line="11" id="ent0007"><rect fill="#F1F1F1" height="68.1358" rx="2.5" ry="2.5" style="stroke:#181818;stroke-width:0.5;" width="170.4935" x="95.9129" y="211.9098"/><rect fill="#F1F1F1" height="10" style="stroke:#181818;stroke-width:0.5;" width="15" x="246.4064" y="216.9098"/><rect fill="#F1F1F1" height="2" style="stroke:#181818;stroke-width:0.5;" width="4" x="244.4064" y="218.9098"/><rect fill="#F1F1F1" height="2" style="stroke:#181818;stroke-width:0.5;" width="4" x="244.4064" y="222.9098"/><text fill="#000000" font-family="sans-serif" font-size="14" lengthAdjust="spacing" textLength="98.0276" x="110.9129" y="246.8757">wiring-harness</text><text fill="#000000" font-family="sans-serif" font-size="14" lengthAdjust="spacing" textLength="130.4935" x="110.9129" y="265.9436">Caddy / mTLS proxy</text></g><!--entity TRANSMISSION--><g class="entity" data-qualified-name="TRANSMISSION" data-source-line="12" id="ent0008"><path d="M170.8856,806.2772 C170.8856,796.2772 253.8044,796.2772 253.8044,796.2772 C253.8044,796.2772 336.7231,796.2772 336.7231,806.2772 L336.7231,853.413 C336.7231,863.413 253.8044,863.413 253.8044,863.413 C253.8044,863.413 170.8856,863.413 170.8856,853.413 L170.8856,806.2772" fill="#F1F1F1" style="stroke:#181818;stroke-width:0.5;"/><path d="M170.8856,806.2772 C170.8856,816.2772 253.8044,816.2772 253.8044,816.2772 C253.8044,816.2772 336.7231,816.2772 336.7231,806.2772" fill="none" style="stroke:#181818;stroke-width:0.5;"/><text fill="#000000" font-family="sans-serif" font-size="14" lengthAdjust="spacing" textLength="145.8374" x="180.8856" y="835.2431">Transmission daemon</text><text fill="#000000" font-family="sans-serif" font-size="14" lengthAdjust="spacing" textLength="68.3337" x="180.8856" y="854.3111">(local RPC)</text></g><!--entity SNOWBRIDGE--><g class="entity" data-qualified-name="SNOWBRIDGE" data-source-line="13" id="ent0009"><path d="M165.5577,925.119 L206.5577,925.119 A3.75,3.75 0 0 1 209.0577,927.619 L216.0577,946.119 L342.0511,946.119 A2.5,2.5 0 0 1 344.5511,948.619 L344.5511,998.7548 A2.5,2.5 0 0 1 342.0511,1001.2548 L165.5577,1001.2548 A2.5,2.5 0 0 1 163.0577,998.7548 L163.0577,927.619 A2.5,2.5 0 0 1 165.5577,925.119" fill="#F1F1F1" style="stroke:#181818;stroke-width:0.5;"/><line style="stroke:#181818;stroke-width:0.5;" x1="163.0577" x2="216.0577" y1="946.119" y2="946.119"/><text fill="#000000" font-family="sans-serif" font-size="14" lengthAdjust="spacing" textLength="119.4615" x="173.0577" y="968.0849">Snowbridge share</text><text fill="#000000" font-family="sans-serif" font-size="14" lengthAdjust="spacing" textLength="151.4934" x="173.0577" y="987.1529">(download destination)</text></g><!--entity CONFIG--><g class="entity" data-qualified-name="CONFIG" data-source-line="14" id="ent0010"><rect fill="#F1F1F1" height="61.1358" rx="2.5" ry="2.5" style="stroke:#181818;stroke-width:0.5;" width="197.1453" x="352.4199" y="218.9098"/><polygon fill="#F1F1F1" points="532.5652,223.9098,532.5652,237.9098,544.5652,237.9098,544.5652,229.9098,538.5652,223.9098,532.5652,223.9098" style="stroke:#181818;stroke-width:0.5;"/><line style="stroke:#181818;stroke-width:0.5;" x1="538.5652" x2="538.5652" y1="223.9098" y2="229.9098"/><line style="stroke:#181818;stroke-width:0.5;" x1="544.5652" x2="538.5652" y1="229.9098" y2="229.9098"/><text fill="#000000" font-family="sans-serif" font-size="14" lengthAdjust="spacing" textLength="167.1453" x="362.4199" y="246.8757">config/magneto.env.local</text><text fill="#000000" font-family="sans-serif" font-size="14" lengthAdjust="spacing" textLength="77.3077" x="362.4199" y="265.9436">(gitignored)</text></g><g class="entity" data-qualified-name="GMN18" data-source-line="25" id="ent0019"><path d="M387.0431,346.7516 L387.0431,374.4576 L580.6572,374.4576 L580.6572,356.7516 L570.6572,346.7516 L387.0431,346.7516" fill="#FEFFDD" style="stroke:#181818;stroke-width:0.5;"/><path d="M570.6572,346.7516 L570.6572,356.7516 L580.6572,356.7516 L570.6572,346.7516" fill="#FEFFDD" style="stroke:#181818;stroke-width:1;"/><text fill="#000000" font-family="sans-serif" font-size="13" lengthAdjust="spacing" textLength="172.6142" x="393.0431" y="365.6486">Gitignored &#8212; never tracked.</text></g><line style="stroke:#181818;stroke-width:1;" x1="181.1597" x2="181.1597" y1="150.2038" y2="211.9098"/><polygon fill="#181818" points="181.1597,211.9098,185.1597,202.9098,181.1597,206.9098,177.1597,202.9098,181.1597,211.9098" style="stroke:#181818;stroke-width:1;"/><text fill="#000000" font-family="sans-serif" font-size="13" lengthAdjust="spacing" textLength="112.4111" x="64.7486" y="186.1008">HTTPS (LAN / VPN)</text><line style="stroke:#181818;stroke-width:1;" x1="181.1597" x2="181.1597" y1="280.0456" y2="331.7516"/><line style="stroke:#181818;stroke-width:1;" x1="181.1597" x2="264.2061" y1="331.7516" y2="331.7516"/><line style="stroke:#181818;stroke-width:1;" x1="264.2061" x2="264.2061" y1="331.7516" y2="506.5935"/><line style="stroke:#181818;stroke-width:1;" x1="264.2061" x2="254.656" y1="506.5935" y2="506.5935"/><line style="stroke:#181818;stroke-width:1;" x1="254.656" x2="254.656" y1="506.5935" y2="516.5935"/><polygon fill="#181818" points="254.656,516.5935,258.656,507.5935,254.656,511.5935,250.656,507.5935,254.656,516.5935" style="stroke:#181818;stroke-width:1;"/><text fill="#000000" font-family="sans-serif" font-size="13" lengthAdjust="spacing" textLength="88.1531" x="89.0066" y="315.9426">localhost:5430</text><line style="stroke:#181818;stroke-width:1;" x1="187.4602" x2="187.4602" y1="454.8875" y2="516.5935"/><polygon fill="#181818" points="187.4602,516.5935,191.4602,507.5935,187.4602,511.5935,183.4602,507.5935,187.4602,516.5935" style="stroke:#181818;stroke-width:1;"/><text fill="#000000" font-family="sans-serif" font-size="13" lengthAdjust="spacing" textLength="53.105" x="130.3552" y="490.7845">flask run</text><line style="stroke:#181818;stroke-width:1;" x1="221.0581" x2="221.0581" y1="584.7293" y2="646.4353"/><polygon fill="#181818" points="221.0581,646.4353,225.0581,637.4353,221.0581,641.4353,217.0581,637.4353,221.0581,646.4353" style="stroke:#181818;stroke-width:1;"/><text fill="#000000" font-family="sans-serif" font-size="13" lengthAdjust="spacing" textLength="188.0581" x="29" y="620.6263">add / pause / resume / remove</text><line style="stroke:#181818;stroke-width:1;" x1="253.8044" x2="253.8044" y1="714.5712" y2="796.2772"/><polygon fill="#181818" points="253.8044,796.2772,257.8044,787.2772,253.8044,791.2772,249.8044,787.2772,253.8044,796.2772" style="stroke:#181818;stroke-width:1;"/><text fill="#000000" font-family="sans-serif" font-size="13" lengthAdjust="spacing" textLength="158.5482" x="91.2562" y="770.4682">JSON-RPC (127.0.0.1:9091)</text><line style="stroke:#181818;stroke-width:1;" x1="253.8044" x2="253.8044" y1="863.413" y2="946.119"/><polygon fill="#181818" points="253.8044,946.119,257.8044,937.119,253.8044,941.119,249.8044,937.119,253.8044,946.119" style="stroke:#181818;stroke-width:1;"/><text fill="#000000" font-family="sans-serif" font-size="13" lengthAdjust="spacing" textLength="135.1871" x="114.6172" y="899.31">completed downloads</text><line style="stroke:#181818;stroke-width:1;" x1="418.135" x2="418.135" y1="280.0456" y2="290.0456"/><line style="stroke:#181818;stroke-width:1;" x1="418.135" x2="331.8518" y1="290.0456" y2="290.0456"/><line style="stroke:#181818;stroke-width:1;" x1="331.8518" x2="331.8518" y1="290.0456" y2="636.4353"/><line style="stroke:#181818;stroke-width:1;" x1="331.8518" x2="286.5506" y1="636.4353" y2="636.4353"/><line style="stroke:#181818;stroke-width:1;" x1="286.5506" x2="286.5506" y1="636.4353" y2="646.4353"/><polygon fill="#181818" points="286.5506,646.4353,290.5506,637.4353,286.5506,641.4353,282.5506,637.4353,286.5506,646.4353" style="stroke:#181818;stroke-width:1;"/><text fill="#000000" font-family="sans-serif" font-size="13" lengthAdjust="spacing" textLength="133.6921" x="194.1597" y="315.9426">host, port, credentials</text><line style="stroke:#181818;stroke-width:1;stroke-dasharray:7,7;" x1="483.8501" x2="483.8501" y1="280.0456" y2="346.7516"/><?plantuml-src LLBRhjem47ptLsnv0hLme1TLXuTAt0wbeW6HgAZIUJ7n4YmIsx8TE55LgH_HB-oNT9tG0eeK9UkPdPrPlpAMPmM7d5Uwz83vaNdfSuI2Pmgz1ej6E-crhO3Rz20zfhwqo9ZXwP5d2AqBiWK_642g2wCLAW-jC-vwfdfMJpbtHzZb9HehbNVm6YnfeMi1Tx2TZUzftdBb2kcSrAhc9pS5sAmdaEQIa3KxcToJwQZcJ9OBe8AjZ9ONA9NOJyPuIbwWDRRwxD0-gxOv41SUGA0xUcqwDNYyMMtZsORTsf4qVTOzSAlGEPBWGbJ4Av9b3CRgbwgH6KsdtvdWdk-uetJkfXSS2wr8DDSfpuEPHYxPZABuwoAE5wk8xNKka4QCbJxlh1IKiIDL99hGPvLhBiAmNYhkgMdJ8OvMs_5cCPtF6BTUxiacfQ7LNcOFbmNrK9rwjJ1rogINcT8MHSEVhAAdnPonYt7eTZyrLc08dvDa7KDxEOh8xhTrr67DIS3G-WXHTprevuSVth_hiv3-zN1Vxz-MYeN_K4ycLARug9tXfGlfMtHbqNmK-eIC83No9XZYV8bNKJTSWVRWxSTUdvx1yB7_EEYmEs1WNWCXNbXZZXufk4k2ZZMEh_E4yT-0qPRUAUL2IvSyTumfxH6ip0uUzFvVKFF_-S6VNxz1uObMHbStFQBeCLG20etz1G00?></g></svg>
